<svg width="41" height="38" viewBox="0 0 41 38" fill="none" xmlns="http://www.w3.org/2000/svg">
<path fill-rule="evenodd" clip-rule="evenodd" d="M31.3092 22.92C28.0232 26.64 23.1982 31.87 21.0692 34.16C18.8892 31.87 13.9172 26.64 10.5332 22.91C5.67319 17.56 3.99219 15.52 3.99219 11.91C3.99219 8.55997 6.76819 3.71997 11.7872 3.71997C18.4362 3.72997 19.5572 9.45997 19.6052 9.72997C19.6082 9.73997 19.6152 9.75997 19.6182 9.76997C19.6292 9.81997 19.6452 9.86997 19.6612 9.91997C19.6752 9.96997 19.6882 10.01 19.7072 10.06C19.7262 10.1 19.7502 10.14 19.7742 10.19C19.7972 10.23 19.8182 10.27 19.8442 10.31C19.8752 10.35 19.9102 10.39 19.9452 10.44C19.9712 10.47 19.9942 10.5 20.0212 10.52C20.0672 10.57 20.1172 10.61 20.1682 10.65C20.1912 10.67 20.2122 10.69 20.2362 10.7C20.2932 10.74 20.3542 10.77 20.4182 10.81C20.4412 10.82 20.4632 10.83 20.4882 10.84C20.5482 10.87 20.6122 10.89 20.6772 10.91C20.7092 10.92 20.7412 10.92 20.7732 10.93C20.7962 10.94 20.8172 10.95 20.8402 10.95C20.8802 10.96 20.9192 10.95 20.9592 10.96C20.9982 10.96 21.0352 10.96 21.0742 10.96C21.1352 10.96 21.1942 10.96 21.2542 10.95C21.2802 10.95 21.3072 10.95 21.3332 10.95C21.3492 10.95 21.3632 10.94 21.3782 10.94C21.4352 10.93 21.4882 10.91 21.5422 10.89C21.5832 10.88 21.6252 10.87 21.6652 10.85C21.7132 10.83 21.7582 10.8 21.8042 10.78C21.8442 10.76 21.8842 10.74 21.9212 10.71C21.9632 10.68 22.0012 10.65 22.0402 10.62C22.0752 10.59 22.1102 10.56 22.1432 10.53C22.1792 10.49 22.2102 10.45 22.2432 10.41C22.2712 10.38 22.3002 10.34 22.3252 10.31C22.3532 10.27 22.3752 10.22 22.3992 10.18C22.4222 10.13 22.4452 10.09 22.4642 10.05C22.4812 10.01 22.4942 9.95997 22.5082 9.91997C22.5242 9.86997 22.5402 9.80997 22.5512 9.75997C22.5542 9.73997 22.5612 9.72997 22.5632 9.70997C22.6042 9.46997 23.6212 3.72997 30.1312 3.71997C34.9922 3.71997 37.6802 8.55997 37.6802 11.91C37.6802 15.53 36.0422 17.57 31.3092 22.92ZM30.1312 0.719971C25.4352 0.729971 22.6082 3.07997 21.0662 5.52997C19.4882 3.07997 16.5942 0.729971 11.7882 0.719971C5.42619 0.719971 0.992188 6.61997 0.992188 11.91C0.992188 16.86 3.59219 19.73 8.31319 24.92C12.7582 29.82 19.9282 37.31 20.0002 37.39C20.0142 37.4 20.0302 37.41 20.0442 37.42C20.0512 37.43 20.0532 37.44 20.0612 37.45C20.0732 37.46 20.0892 37.46 20.1022 37.47C20.2332 37.59 20.3762 37.68 20.5312 37.74C20.5452 37.75 20.5612 37.75 20.5752 37.75C20.7392 37.81 20.9102 37.85 21.0832 37.85H21.0842C21.2612 37.85 21.4362 37.81 21.6032 37.75C21.6172 37.75 21.6312 37.74 21.6452 37.74C21.8032 37.67 21.9502 37.58 22.0832 37.46C22.0952 37.45 22.1102 37.44 22.1212 37.43C22.1282 37.43 22.1302 37.42 22.1372 37.41C22.1502 37.4 22.1672 37.39 22.1812 37.37C22.2502 37.3 29.2312 29.81 33.5572 24.91C38.1502 19.71 40.6802 16.85 40.6802 11.91C40.6802 6.61997 36.3482 0.719971 30.1312 0.719971Z" fill="white"/>
</svg>
