<svg width="66" height="66" viewBox="0 0 66 66" fill="none" xmlns="http://www.w3.org/2000/svg">
<path d="M33 66C51.2254 66 66 51.2254 66 33C66 14.7746 51.2254 0 33 0C14.7746 0 0 14.7746 0 33C0 51.2254 14.7746 66 33 66Z" fill="#30363B"/>
<path d="M19.25 26.0699H44.75V38.52C44.75 45.2854 39.2655 50.7699 32.5 50.7699H31.5C24.7345 50.7699 19.25 45.2854 19.25 38.5199V26.0699Z" stroke="white" stroke-width="1.5"/>
<path d="M45.2061 40.4154C45.5435 40.4805 45.892 40.5145 46.2484 40.5145C49.2698 40.5145 51.7061 37.9681 51.7061 34.9467C51.7061 31.9252 49.8066 29.573 46.7852 29.573L45.2061 29.573" stroke="white" stroke-width="1.5"/>
<path d="M29.0075 20.6845C29.0075 20.6845 27.8908 16.7791 31.4574 14.8878C35.024 12.9965 33.6021 9.75788 33.6021 9.75788" stroke="white" stroke-width="1.5" stroke-linecap="square" stroke-linejoin="round"/>
<path d="M34.1377 25.0634C34.1377 25.0634 33.0209 21.158 36.5875 19.2667C40.1542 17.3754 38.7322 14.1368 38.7322 14.1368" stroke="white" stroke-width="1.5" stroke-linecap="square" stroke-linejoin="round"/>
</svg>
